<svg xmlns="http://www.w3.org/2000/svg" xmlns:xlink="http://www.w3.org/1999/xlink" viewBox="0 0 24 24"><path d="M 3.007 6.962 C 2.935 7.877 3.429 8.651 3.951 9.382 C 4.526 10.185 5.105 10.985 5.694 11.784 C 6.831 13.336 7.963 14.896 9.154 16.41 C 9.693 17.098 10.322 17.752 11.239 17.944 C 12.155 18.137 13.117 17.82 13.634 17.038 C 14.074 16.375 14.182 15.559 14.586 14.871 C 14.991 14.182 15.548 13.515 16.118 12.9 C 17.624 11.288 19.187 9.724 20.724 8.138 C 21.605 7.227 20.18 5.863 19.295 6.778 C 17.781 8.343 16.244 9.886 14.757 11.472 C 14.074 12.203 13.404 12.968 12.892 13.819 C 12.632 14.251 12.411 14.708 12.241 15.178 C 12.164 15.388 12.101 15.939 11.886 16.068 C 11.391 16.358 10.56 14.982 10.363 14.721 C 9.702 13.849 9.041 12.968 8.39 12.092 C 7.738 11.216 7.091 10.326 6.449 9.441 C 6.125 8.993 5.793 8.548 5.478 8.09 C 5.231 7.727 5.002 7.406 5.038 6.962 C 5.078 6.445 4.544 6 4.027 6 C 3.438 6 3.047 6.44 3.007 6.962 Z" fill="rgb(255,255,255)"></path></svg>