<svg xmlns="http://www.w3.org/2000/svg" xmlns:xlink="http://www.w3.org/1999/xlink" viewBox="0 0 24 24"><path d="M 0.007 0.962 C -0.065 1.877 0.429 2.651 0.951 3.382 C 1.526 4.185 2.105 4.985 2.694 5.784 C 3.831 7.336 4.963 8.896 6.154 10.41 C 6.693 11.098 7.322 11.752 8.239 11.944 C 9.155 12.137 10.117 11.82 10.634 11.038 C 11.074 10.375 11.182 9.559 11.586 8.871 C 11.991 8.182 12.548 7.515 13.118 6.9 C 14.624 5.288 16.187 3.724 17.724 2.138 C 18.605 1.227 17.18 -0.137 16.295 0.778 C 14.781 2.343 13.244 3.886 11.757 5.472 C 11.074 6.203 10.404 6.968 9.892 7.819 C 9.632 8.251 9.411 8.708 9.241 9.178 C 9.164 9.388 9.101 9.939 8.886 10.068 C 8.391 10.358 7.56 8.982 7.363 8.721 C 6.702 7.849 6.041 6.968 5.39 6.092 C 4.738 5.216 4.091 4.326 3.449 3.441 C 3.125 2.993 2.793 2.548 2.478 2.09 C 2.231 1.727 2.002 1.406 2.038 0.962 C 2.078 0.445 1.544 0 1.027 0 C 0.438 0 0.047 0.44 0.007 0.962 Z" transform="translate(3 6) rotate(-180 9 6)" fill="rgb(255,255,255)"></path></svg>